<?xml version="1.0" encoding="utf-8"?>
<!-- Generator: Adobe Illustrator 19.0.0, SVG Export Plug-In . SVG Version: 6.00 Build 0)  -->
<svg version="1.1" id="Layer_1" xmlns="http://www.w3.org/2000/svg" xmlns:xlink="http://www.w3.org/1999/xlink" x="0px" y="0px"
	 viewBox="49 76 148.5 50" style="enable-background:new 49 76 148.5 50;" xml:space="preserve">
<style type="text/css">
	.st0{fill:#5D5C68;}
</style>
<g>
	<path id="XMLID_175_" class="st0" d="M52.6,109.6c0-0.1,0-0.1,0-0.2C52.6,109.5,52.6,109.6,52.6,109.6
		C52.6,109.7,52.6,109.7,52.6,109.6z"/>
	<path id="XMLID_173_" class="st0" d="M50.7,106.1L50.7,106.1v-0.2C50.7,106,50.7,106.1,50.7,106.1z"/>
	<g id="XMLID_153_">
		<path id="XMLID_170_" class="st0" d="M71.7,96.6c-0.1,0-0.1,0-0.2,0s-0.2,0-0.2,0h-0.4c-0.2,0-0.4,0.1-0.5,0.2s-0.2,0.3-0.2,0.5
			v11.9c0,0.5-0.1,1-0.3,1.5s-0.5,0.9-0.8,1.2c-0.4,0.4-0.8,0.7-1.2,0.9c-0.5,0.2-1,0.3-1.5,0.3s-1-0.1-1.5-0.3s-0.9-0.5-1.3-0.8
			c-0.4-0.4-0.6-0.8-0.9-1.2c-0.2-0.5-0.3-1-0.3-1.5v-12c0-0.2-0.1-0.4-0.2-0.5c-0.1-0.1-0.3-0.2-0.5-0.2h-0.4
			c-0.2,0-0.4,0.1-0.5,0.2s-0.2,0.3-0.2,0.5v11.9c0,0.6-0.1,1.1-0.3,1.5c-0.2,0.5-0.5,0.9-0.9,1.2c-0.4,0.3-0.8,0.6-1.2,0.8
			c-0.5,0.2-0.9,0.3-1.4,0.3c-0.6,0-1.1-0.1-1.5-0.3c-0.5-0.2-0.9-0.5-1.2-0.8c-0.4-0.3-0.6-0.8-0.8-1.2c-0.1-0.4-0.2-0.7-0.3-1.1
			c0-0.1,0-0.1,0-0.2c-0.1-0.4-0.5-0.7-0.9-0.7c-0.5,0-0.9,0.3-0.9,0.7c0,0.1,0,0.3,0,0.4c0.1,0.7,0.3,1.4,0.6,1.9
			c0.4,0.7,0.9,1.3,1.5,1.8s1.2,0.8,1.9,1s1.3,0.3,1.8,0.3c0.8,0,1.7-0.2,2.6-0.6c0.9-0.4,1.7-1,2.3-1.8c0.6,0.8,1.3,1.4,2.2,1.8
			s1.8,0.6,2.6,0.6c0.8,0,1.5-0.2,2.3-0.5c0.7-0.3,1.3-0.7,1.8-1.2s0.9-1.1,1.2-1.9c0.3-0.7,0.5-1.5,0.5-2.3V97.3
			c0-0.1,0-0.4-0.1-0.5s-0.2-0.2-0.5-0.2C71.8,96.6,71.8,96.6,71.7,96.6z"/>
		<path id="XMLID_169_" class="st0" d="M52.4,96.8c-0.1-0.1-0.3-0.2-0.5-0.2h-0.5c-0.2,0-0.4,0.1-0.5,0.2s-0.2,0.3-0.2,0.5v8.5v0.1
			v0.1c0.1,0.4,0.5,0.8,0.9,0.8s0.8-0.3,0.9-0.7v-0.3v-0.1v-8.3C52.6,97.1,52.5,96.9,52.4,96.8z"/>
	</g>
	<path id="XMLID_152_" class="st0" d="M78.7,104.3c0,0.3,0.1,0.5,0.2,0.6c0.1,0.2,0.3,0.3,0.5,0.3c0.1,0,6.3,0,6.3,0
		c0.2,0,0.4-0.1,0.5-0.2s0.2-0.3,0.2-0.5v-1.7c0-1.1-0.2-2-0.5-2.9c-0.3-0.8-0.7-1.5-1.2-2.1s-1.2-1-1.9-1.3
		c-0.7-0.3-1.5-0.4-2.3-0.4s-1.6,0.2-2.3,0.5c-0.7,0.3-1.3,0.7-1.9,1.3c-0.5,0.6-0.9,1.3-1.2,2.1c-0.3,0.8-0.5,1.8-0.5,2.8v0.3v3.7
		v2.5c0,0.8,0.2,1.5,0.5,2.3c0.3,0.7,0.7,1.3,1.2,1.9c0.5,0.5,1.2,0.9,1.9,1.2c0.7,0.3,1.5,0.5,2.3,0.5c0.7,0,1.4-0.1,2.1-0.4
		c0.7-0.2,1.2-0.6,1.7-1s0.9-0.9,1.2-1.4s0.5-1.1,0.7-1.7c0-0.2-0.1-0.4-0.2-0.5s-0.3-0.2-0.5-0.2h-0.4c-0.3,0-0.5,0.1-0.6,0.2
		s-0.2,0.3-0.2,0.5c-0.1,0.3-0.2,0.7-0.4,1c-0.2,0.3-0.4,0.6-0.7,0.8c-0.3,0.3-0.7,0.5-1.1,0.6s-1,0.2-1.6,0.2s-1.1-0.1-1.5-0.3
		c-0.5-0.2-0.9-0.5-1.2-0.8c-0.4-0.3-0.6-0.8-0.8-1.2c-0.2-0.5-0.3-1-0.3-1.5V107v-1.5c0-0.6,0-1.2,0-1.9c0-0.1,0-0.3,0-0.3
		c0-0.1,0-0.1,0-0.2c0,0,0,0,0-0.1c0-0.8,0.1-1.5,0.3-2c0.2-0.7,0.5-1.3,0.9-1.7c0.4-0.4,0.8-0.7,1.3-0.9c0.5-0.2,0.9-0.3,1.4-0.3
		s1,0.1,1.5,0.3c0.5,0.2,0.9,0.5,1.3,1c0.4,0.4,0.7,1,0.9,1.7c0.2,0.7,0.3,1.5,0.3,2.5c0,0-5.3-0.1-5.6,0.1
		C78.7,103.9,78.7,104.2,78.7,104.3z"/>
	<path id="XMLID_148_" class="st0" d="M191.3,98c0.3,0,0.4,0,0.6-0.1C191.7,98,191.5,98,191.3,98z"/>
	<g id="XMLID_137_">
		<path id="XMLID_146_" class="st0" d="M165.8,96.6h-0.4c-0.2,0-0.4,0.1-0.5,0.2s-0.2,0.3-0.2,0.5v11.9c0,0.5-0.1,1-0.3,1.5
			s-0.5,0.9-0.8,1.2c-0.4,0.4-0.8,0.7-1.2,0.9c-0.5,0.2-1,0.3-1.5,0.3s-1-0.1-1.5-0.3s-0.9-0.5-1.3-0.8c-0.4-0.4-0.6-0.8-0.9-1.2
			c-0.2-0.5-0.3-1-0.3-1.5v-12c0-0.2-0.1-0.4-0.2-0.5c-0.2-0.1-0.3-0.2-0.5-0.2h-0.4c-0.2,0-0.4,0.1-0.5,0.2s-0.2,0.3-0.2,0.5v11.9
			c0,0.6-0.1,1.1-0.3,1.5c-0.2,0.5-0.5,0.9-0.9,1.2c-0.4,0.3-0.8,0.6-1.2,0.8c-0.5,0.2-0.9,0.3-1.4,0.3c-0.6,0-1.1-0.1-1.5-0.3
			c-0.5-0.2-0.9-0.5-1.2-0.8c-0.4-0.3-0.6-0.8-0.8-1.2c-0.1-0.4-0.2-0.7-0.3-1.1c0-0.1,0-0.1,0-0.2c-0.1-0.4-0.5-0.7-0.9-0.7
			c-0.5,0-0.9,0.3-0.9,0.7c0,0.1,0,0.3,0,0.4c0.1,0.7,0.3,1.4,0.6,1.9c0.4,0.7,0.9,1.3,1.5,1.8s1.2,0.8,1.9,1s1.3,0.3,1.8,0.3
			c0.8,0,1.7-0.2,2.6-0.6c0.9-0.4,1.7-1,2.3-1.8c0.6,0.8,1.3,1.4,2.2,1.8s1.8,0.6,2.6,0.6s1.5-0.2,2.3-0.5c0.7-0.3,1.3-0.7,1.8-1.2
			s0.9-1.1,1.2-1.9c0.3-0.7,0.5-1.5,0.5-2.3V97.3c0-0.1-0.1-0.3-0.2-0.4C166.5,96.5,165.8,96.6,165.8,96.6z"/>
		<path id="XMLID_145_" class="st0" d="M146.9,96.8c-0.2-0.1-0.3-0.2-0.5-0.2H146c-0.2,0-0.4,0.1-0.5,0.2s-0.2,0.3-0.2,0.5v8.5v0.1
			v0.1c0.1,0.4,0.5,0.8,0.9,0.8s0.8-0.3,0.9-0.7v-0.3v-0.1v-8.4C147.1,97.1,147,96.9,146.9,96.8z"/>
	</g>
	<path id="XMLID_136_" class="st0" d="M174.1,104.3c0,0.3,0.1,0.5,0.2,0.6c0.1,0.2,0.3,0.3,0.5,0.3c0.1,0,6.3,0,6.3,0
		c0.2,0,0.4-0.1,0.5-0.2s0.2-0.3,0.2-0.5v-1.7c0-1.1-0.2-2-0.5-2.9c-0.3-0.8-0.7-1.5-1.2-2.1s-1.2-1-1.9-1.3s-1.5-0.4-2.3-0.4
		s-1.6,0.2-2.3,0.5s-1.3,0.7-1.9,1.3c-0.5,0.6-0.9,1.3-1.2,2.1c-0.3,0.8-0.5,1.8-0.5,2.8v0.3v3.7v2.5c0,0.8,0.2,1.5,0.5,2.3
		c0.3,0.7,0.7,1.3,1.2,1.9c0.5,0.5,1.2,0.9,1.9,1.2c0.7,0.3,1.5,0.5,2.3,0.5c0.7,0,1.4-0.1,2.1-0.4c0.7-0.2,1.2-0.6,1.7-1
		s0.9-0.9,1.2-1.4s0.5-1.1,0.7-1.7c0-0.2-0.1-0.4-0.2-0.5c-0.1-0.1-0.3-0.2-0.5-0.2h-0.4c-0.3,0-0.5,0.1-0.6,0.2s-0.2,0.3-0.2,0.5
		c-0.1,0.3-0.2,0.7-0.4,1s-0.4,0.6-0.7,0.8c-0.3,0.3-0.7,0.5-1.1,0.6c-0.4,0.1-1,0.2-1.6,0.2s-1.1-0.1-1.5-0.3
		c-0.5-0.2-0.9-0.5-1.2-0.8c-0.4-0.3-0.6-0.8-0.8-1.2c-0.2-0.5-0.3-1-0.3-1.5V107v-1.5c0-0.6,0-1.2,0-1.9c0-0.1,0-0.3,0-0.3
		c0-0.1,0-0.1,0-0.2c0,0,0,0,0-0.1c0-0.8,0.1-1.5,0.3-2c0.2-0.7,0.5-1.3,0.9-1.7c0.4-0.4,0.8-0.7,1.3-0.9c0.5-0.2,0.9-0.3,1.4-0.3
		s1,0.1,1.5,0.3c0.5,0.2,0.9,0.5,1.3,1c0.4,0.4,0.7,1,0.9,1.7s0.3,1.5,0.3,2.5c0,0-5.3-0.1-5.6,0.1
		C174.1,103.9,174.1,104.2,174.1,104.3z"/>
	<path id="XMLID_218_" class="st0" d="M108.5,117.9c-1.1,0.2-2.1,0.2-3,0.2c-1.7,0-2.8-0.3-3.4-0.9c0.6,0.6,1.7,0.9,3.4,0.9
		C106.3,118.1,107.3,118,108.5,117.9z"/>
	<path id="XMLID_216_" class="st0" d="M112.6,117.1c0.2,0,0.3-0.1,0.5-0.1c-0.5-0.5-1-1.1-1.4-1.6l0,0c0.4,0.6,0.9,1.1,1.4,1.6
		C112.9,117.1,112.7,117.1,112.6,117.1z"/>
	<path id="XMLID_207_" class="st0" d="M127.2,86.7c1.1,1.1,2.9,1,4,0l0,0c1.1-1.1,1.1-2.9,0-4l0,0c-1.1-1.1-2.9-1.1-4,0l0,0
		C126.1,83.7,126.1,85.5,127.2,86.7L127.2,86.7z M128.2,83.6c0.6-0.6,1.4-0.6,2,0c0.3,0.3,0.4,0.6,0.4,1c0,0.8-0.6,1.4-1.4,1.4
		c-0.4,0-0.7-0.1-1-0.4l0,0C127.6,85,127.6,84.1,128.2,83.6z"/>
	<path id="XMLID_204_" class="st0" d="M110.3,103.8c-0.8,1.1-0.5,2.7,0.6,3.5c1.2,0.8,2.7,0.5,3.6-0.6l0,0c0.8-1.1,0.5-2.7-0.6-3.5
		C112.7,102.4,111.1,102.6,110.3,103.8z M113.4,105.9c-0.2,0.2-0.4,0.4-0.8,0.5l0,0c-0.3,0.1-0.6,0-0.9-0.2
		c-0.5-0.4-0.7-1.1-0.3-1.6s1.1-0.6,1.6-0.3C113.6,104.6,113.7,105.4,113.4,105.9z"/>
	<g id="XMLID_193_">
		<path id="XMLID_203_" class="st0" d="M121.4,96.2c3.4-0.1,5.8,1.6,6.7,2.3c0.2,0.2,0.4,0.2,0.7,0.2c0.2,0,0.3-0.1,0.5-0.3
			c0.3-0.3,0.3-0.9-0.1-1.2c-1-0.9-3.8-2.9-7.8-2.7c-4.4,0.2-7.2,2.9-7.9,3.7c-0.3,0.3-0.3,0.9,0.1,1.2c0.3,0.3,0.9,0.3,1.2-0.1
			C115.3,98.7,117.7,96.4,121.4,96.2z"/>
		<path id="XMLID_194_" class="st0" d="M142.7,89c-1.1-1.2-3.3-1.1-6.9,0.3c-1.9,0.7-4.2,1.8-6.6,3.2c0,0-0.1,0-0.1,0.1
			c0,0,0.1,0,0.1-0.1c-1.3-0.8-2.8-1.4-4.3-1.7c-0.1,0-0.7-0.2-0.8-0.2H124c-0.5,0.1-0.8,0.5-0.7,1c0.1,0.3,0.3,0.6,0.6,0.7
			c0,0,0.4,0.1,0.6,0.1c3.9,0.9,7.2,3.4,8.9,6.9c-2.7,3.4-5.7,6.4-9.4,9.4c-2.7,2.1-5.9,4.8-10.8,6.9c-2.4-1.9-4.1-4.7-4.6-7.9
			c-0.3-1.5-0.3-2.9-0.1-4.3c0-0.2,0.1-0.4,0.1-0.6c0.1-0.5,0.2-1,0.4-1.6c0.1-0.2,0.4-1.2,0.6-1.5c0.1-0.2,0.4-0.8,0.5-0.9
			c0.1-0.2,0.2-0.3,0.3-0.5c0.1-0.2,0.6-0.9,0.8-1.1c0.6-0.7,1.1-1.3,1.6-1.7c0.5-0.4,1.1-1.1,2.1-1.7c0.2-0.1,0.4-0.2,0.5-0.3
			c0.1-0.1,0.5-0.3,0.6-0.3c0.3-0.1,0.6-0.3,1-0.4c0.1,0,0.5-0.2,0.6-0.2s1.7-0.4,1.8-0.4h0.1c0.4-0.1,0.6-0.5,0.6-0.9
			c-0.1-0.4-0.5-0.7-0.9-0.7h-0.1c-8.1,1.4-13.5,9.2-12,17.2c0.1,0.7,0.3,1.3,0.5,1.9c-0.5,0.6-1.2,1.3-1.8,2.1
			c-0.8,0.9-1.5,2-2.2,3s-1.2,1.8-1.5,2.6c-0.8,1.8-0.9,3.1-0.3,4.1c0.8,1.1,2.4,1.4,5.1,1c1-0.2,2.1-0.4,3.3-0.8
			c3.1-0.9,6-2.2,6.6-2.5c2.4,0.8,5,1.1,7.6,0.6c7.8-1.4,13.2-8.7,12.2-16.5c1.7-2.1,3.2-4.4,4.3-6.3C143.2,93,143.9,90.4,142.7,89z
			 M129.8,94L129.8,94l0.3,0.6L129.8,94z M129.6,92.8c0.1,0,0.1,0,0.2,0.1c0,0,0.1,0,0,0C129.9,92.9,129.7,92.8,129.6,92.8z
			 M131.3,94L131.3,94L131.3,94c5.5-2.9,6.8-2.5,6.9-2.5c0,0,0,0.2-0.1,0.5c-0.1,0.4-0.4,1.2-1.2,2.4c-0.2,0.2-0.3,0.5-0.5,0.7
			c-0.6,0.9-1.3,1.8-2,2.7C133.7,96.4,132.6,95.1,131.3,94z M112.6,115.8c0.1,0,0.2-0.1,0.3-0.1
			C112.8,115.7,112.7,115.8,112.6,115.8c-0.1,0-0.1,0.1-0.2,0.1C112.5,115.9,112.5,115.8,112.6,115.8z M105.1,116.6
			c0.2-0.4,0.6-0.9,1-1.6c0.5-0.7,1.3-1.7,2.3-2.7c0.8,1.5,1.8,2.9,3.1,4c-6,2.4-6.8,1.6-6.8,1.6
			C104.7,117.7,104.7,117.3,105.1,116.6z M134.5,108.2c-1.1,5-5.2,9.2-10.6,10.1c-1.6,0.3-3.2,0.3-4.7,0c-0.1,0-0.3-0.1-0.4-0.1
			c0.8-0.4,1.6-0.9,2.3-1.3c2.9-1.7,5-3.5,6.5-4.7c2.2-1.8,4-3.5,5.4-5c0.6-0.7,1.2-1.3,1.7-1.8c0.1-0.1,0.1-0.1,0.2-0.2
			C134.8,106.3,134.7,107.3,134.5,108.2z M140.3,94.6c-0.3,0.5-0.6,1.1-1,1.7c-0.9,1.5-2.1,3.2-3.4,5l0,0c-0.3,0.4-0.6,0.8-0.9,1.2
			c-0.1,0.1-0.2,0.3-0.4,0.5c-0.1,0.1-0.1,0.1-0.2,0.2c-0.9,1.2-2.6,3-4.8,5.1c-0.9,0.9-2,1.8-3.1,2.7c-2,1.6-5.3,4.3-10,6.5
			c-0.2,0.1-0.3,0.2-0.5,0.2c-0.1,0-0.6,0.3-1.5,0.6c-0.9,0.4-2.1,0.8-3.4,1.3c-0.5,0.2-1.1,0.4-1.7,0.5c-4,1.2-6,1.1-6.5,0.6
			l-0.1-0.1c-0.3-0.4-0.2-1.1,0.3-2.2v0.1c0,0.1,0.1,0.1,0.1,0.2l0,0c0.1,0.2,0.2,0.3,0.4,0.4c0.6,0.4,1.6,0.5,3,0.3
			c0.7-0.1,1.5-0.3,2.5-0.6s2.1-0.7,3.4-1.2c0.1-0.1,0.2-0.1,0.4-0.2c0.1,0,0.1-0.1,0.2-0.1c0.5-0.2,1.1-0.5,1.6-0.7l0,0l0,0
			c1.1-0.5,2.2-1.1,3.1-1.6c2.9-1.7,5.2-3.5,7.1-5.1c1-0.8,2-1.7,2.9-2.5c1.1-1,2.2-2,3.2-3.1s2-2.2,3-3.3c0.3-0.3,0.5-0.6,0.8-1
			c0.1-0.2,0.3-0.3,0.4-0.5c3.2-4.1,5.5-7.4,4.2-9c-0.1-0.1-0.2-0.2-0.2-0.2c-0.1-0.1-0.2-0.2-0.4-0.2l0,0c1.6-0.4,2.3-0.2,2.6,0.1
			C141.6,90.3,142.1,91.2,140.3,94.6z"/>
	</g>
	<path id="XMLID_182_" class="st0" d="M108.5,117.9c1.2-0.2,2.6-0.4,4.1-0.7C111,117.5,109.7,117.7,108.5,117.9z"/>
	<path id="XMLID_181_" class="st0" d="M101.6,116.3L101.6,116.3L101.6,116.3L101.6,116.3z"/>
	<path id="XMLID_105_" class="st0" d="M94.5,99.6c0.3-0.7,0.7-1.3,1.2-1.9c0.5-0.5,1.1-0.9,1.9-1.2c0.2-0.1,0.5-0.2,0.8-0.3
		c0.5-0.1,1-0.2,1.5-0.2c0.1,0,0.3,0,0.5,0s0.2,0,0.2,0c0.1,0,0.3,0,0.5,0.1c0.1,0,0.2,0.1,0.4,0.1c0.1,0,0.3,0.3,0.4,0.7
		c0,0.4-0.2,0.7-0.5,0.9c-0.1,0.1-0.3,0.1-0.4,0.1c-0.2,0-0.4,0-0.5,0c-0.4-0.1-0.7,0-1,0c-0.5,0-0.8,0.2-1.1,0.3
		c-0.2,0.1-0.7,0.3-1.2,0.8c-0.4,0.4-0.6,0.8-0.8,1.3s-0.3,1-0.3,1.5v7.3c0,0.6,0.1,1.1,0.3,1.5c0.2,0.5,0.5,0.9,0.8,1.2
		c0.4,0.3,0.8,0.6,1.2,0.8c0.5,0.2,1,0.3,1.5,0.3s1-0.1,1.5-0.3s0.9-0.5,1.3-0.8s0.6-0.8,0.9-1.2c0.2-0.5,0.3-1,0.3-1.5V90.9
		c0-0.2,0.1-0.4,0.2-0.5s0.3-0.2,0.5-0.2h0.3c0.2,0,0.4,0.1,0.5,0.2s0.2,0.3,0.2,0.5v18.4v4.6c0,0.2-0.1,0.4-0.2,0.5
		s-0.3,0.2-0.5,0.2h-0.4c-0.2,0-0.4-0.1-0.5-0.2c-0.2-0.1-0.2-0.3-0.2-0.5v-0.3c-0.4,0.4-0.9,0.7-1.6,1c-0.6,0.3-1.2,0.4-2,0.4
		c-0.1,0-0.2,0-0.3,0c-0.4,0-0.8,0-1.2-0.1c-0.4-0.1-0.7-0.2-1.1-0.3c-0.7-0.3-1.3-0.7-1.9-1.2c-0.5-0.5-0.9-1.1-1.2-1.8
		s-0.4-1.5-0.4-2.3V102C94.1,101.1,94.2,100.4,94.5,99.6z"/>
	<path id="XMLID_55_" class="st0" d="M127.7,121.6c-0.8,0.8-0.8,2,0,2.8s2,0.8,2.8,0l0,0c0.8-0.8,0.8-2,0-2.8
		C129.8,120.8,128.5,120.8,127.7,121.6z M129.8,123.7c-0.2,0.2-0.4,0.3-0.6,0.3l0,0c-0.2,0-0.5-0.1-0.6-0.3c-0.4-0.4-0.4-0.9,0-1.3
		c0.4-0.4,0.9-0.4,1.3,0C130.2,122.7,130.2,123.3,129.8,123.7z"/>
	<path class="st0" d="M193.1,110.1"/>
	<path class="st0" d="M166.5,97.1"/>
	<path class="st0" d="M118.8,92.3"/>
	<path class="st0" d="M115.9,93.2"/>
	<path class="st0" d="M196.1,100.4c-0.1-0.4-0.2-0.7-0.2-0.8c-0.3-0.7-0.7-1.3-1.2-1.9c-0.5-0.5-1.1-0.9-1.9-1.2
		c-0.2-0.1-0.5-0.2-0.8-0.3c-0.5-0.1-1-0.2-1.5-0.2c-0.1,0-0.3,0-0.5,0c-0.1,0-0.1,0-0.2,0c-0.2,0-0.3,0-0.4,0
		c-0.1,0-0.2,0.1-0.4,0.2c-0.2,0.2-0.4,0.4-0.4,0.7c0,0.4,0.3,0.7,0.6,0.9c0.1,0,0.1,0.1,0.2,0.1c0.1,0,0.2,0,0.4,0s0.4,0,0.6-0.1
		c0.1,0,1,0,1.6,0.3c0.7,0.3,1.1,0.7,1.2,0.8c0.4,0.4,0.6,0.8,0.8,1.3s0.3,1,0.3,1.5v7.3c0,0.6-0.1,1.1-0.3,1.5
		c-0.2,0.5-0.5,0.9-0.8,1.2c-0.4,0.3-0.8,0.6-1.2,0.8c-0.5,0.2-1,0.3-1.5,0.3s-1-0.1-1.5-0.3c-0.5-0.2-0.9-0.5-1.3-0.8
		c-0.4-0.3-0.6-0.8-0.9-1.2c-0.2-0.5-0.3-1-0.3-1.5V90.9c0-0.2-0.1-0.4-0.2-0.5c-0.1-0.1-0.3-0.2-0.5-0.2h-0.4
		c-0.2,0-0.4,0.1-0.5,0.2s-0.2,0.3-0.2,0.5v18.4v4.6c0,0.2,0.1,0.4,0.2,0.5c0.1,0.1,0.3,0.2,0.5,0.2h0.4c0.2,0,0.4-0.1,0.5-0.2
		c0.2-0.1,0.2-0.3,0.2-0.5v-0.3c0.4,0.4,0.9,0.7,1.6,1c0.6,0.3,1.2,0.4,2,0.4c0.1,0,0.2,0,0.3,0c0.4,0,0.8,0,1.2-0.1
		s0.7-0.2,1.1-0.3c0.9-0.4,1.5-0.9,1.8-1.2c0.2-0.2,0.4-0.4,0.4-0.4c0.1-0.1,0.2-0.3,0.4-0.4c0.1-0.1,0.3-0.4,0.5-0.7
		c0.2-0.3,0.4-0.7,0.5-1.3c0.1-0.4,0.1-0.7,0.1-0.7c0-0.2,0.1-0.4,0.1-0.6c0.1-1,0-1.8,0-2.1C196.3,104.5,196.7,103,196.1,100.4z"/>
</g>
</svg>
