<?xml version="1.0" encoding="utf-8"?>
<!-- Generator: Adobe Illustrator 19.0.0, SVG Export Plug-In . SVG Version: 6.00 Build 0)  -->
<svg version="1.1" id="Layer_1" xmlns="http://www.w3.org/2000/svg" xmlns:xlink="http://www.w3.org/1999/xlink" x="0px" y="0px"
	 viewBox="-405 256 148.5 50" style="enable-background:new -405 256 148.5 50;" xml:space="preserve">
<style type="text/css">
	.st0{fill:#301AFF;}
</style>
<path id="XMLID_224_" class="st0" d="M-315.1,271.3c0.1,0.1,0.2,0.2,0.3,0.3c0.2,0.2,0.4,0.4,0.6,0.7h0c-0.2-0.2-0.4-0.4-0.6-0.7
	C-314.9,271.5-315,271.4-315.1,271.3z"/>
<path id="XMLID_223_" class="st0" d="M-315.6,272.7C-315.6,272.7-315.6,272.7-315.6,272.7C-315.6,272.7-315.6,272.7-315.6,272.7
	l-0.2-0.7c0,0,0,0,0,0L-315.6,272.7z"/>
<path id="XMLID_222_" class="st0" d="M-316.3,271.1l0.3,0.9c0,0,0.1,0,0.1,0c0,0-0.1,0-0.1,0L-316.3,271.1z"/>
<path id="XMLID_212_" class="st0" d="M-315.4,271c-0.1-0.1-0.2-0.2-0.3-0.3c-0.2-0.2-0.4-0.4-0.7-0.6c0.2,0.2,0.4,0.4,0.7,0.6
	C-315.6,270.8-315.5,270.9-315.4,271z"/>
<rect id="XMLID_210_" x="-316.4" y="270.1" class="st0" width="0" height="0"/>
<path id="XMLID_184_" class="st0" d="M-314.2,272.3C-314.2,272.3-314.2,272.3-314.2,272.3C-314.2,272.3-314.2,272.3-314.2,272.3
	L-314.2,272.3z"/>
<path id="XMLID_179_" class="st0" d="M-315.9,272C-315.9,272-315.9,272-315.9,272L-315.9,272C-315.9,272-315.9,272-315.9,272z"/>
<path id="XMLID_178_" class="st0" d="M-316.3,271.1l-0.3-0.9c0.1,0,0.2-0.1,0.3-0.1c0,0,0,0,0,0c-0.1,0-0.2,0.1-0.3,0.1
	L-316.3,271.1z"/>
<polygon id="XMLID_177_" class="st0" points="-316.4,270.1 -316.4,270.1 -316.4,270.1 "/>
<path id="XMLID_175_" class="st0" d="M-401.9,288.4c0-0.1,0-0.1,0-0.2C-401.9,288.2-401.9,288.3-401.9,288.4
	C-401.9,288.4-401.9,288.4-401.9,288.4z"/>
<path id="XMLID_174_" class="st0" d="M-403.9,288.4c0,0.1,0,0.2,0,0.2c0-0.1,0-0.3,0-0.4C-403.9,288.2-403.9,288.3-403.9,288.4z"/>
<path id="XMLID_173_" class="st0" d="M-403.9,284.8c0,0.1,0,0.1,0,0.1v-0.3C-403.9,284.7-403.9,284.7-403.9,284.8z"/>
<path id="XMLID_172_" class="st0" d="M-401.9,284.8c0-0.1,0-0.2,0-0.2v0.5C-401.9,284.9-401.9,284.8-401.9,284.8z"/>
<g id="XMLID_150_">
	<g id="XMLID_153_">
		<path id="XMLID_170_" class="st0" d="M-382.4,275.3c-0.2-0.1-0.3-0.2-0.5-0.2h-0.4c-0.2,0-0.4,0.1-0.6,0.2
			c-0.1,0.1-0.2,0.3-0.2,0.5V288c0,0.5-0.1,1-0.3,1.5c-0.2,0.5-0.5,0.9-0.9,1.3c-0.4,0.4-0.8,0.7-1.3,0.9c-0.5,0.2-1,0.3-1.5,0.3
			c-0.5,0-1-0.1-1.5-0.3c-0.5-0.2-0.9-0.5-1.3-0.9c-0.4-0.4-0.7-0.8-0.9-1.3c-0.2-0.5-0.3-1-0.3-1.6v-12.2c0-0.2-0.1-0.4-0.2-0.5
			c-0.2-0.1-0.3-0.2-0.5-0.2h-0.4c-0.2,0-0.4,0.1-0.6,0.2c-0.1,0.1-0.2,0.3-0.2,0.5V288c0,0.6-0.1,1.1-0.3,1.6
			c-0.2,0.5-0.5,0.9-0.9,1.3s-0.8,0.7-1.3,0.9c-0.5,0.2-1,0.3-1.5,0.3c-0.6,0-1.1-0.1-1.6-0.3c-0.5-0.2-0.9-0.5-1.3-0.8
			c-0.4-0.4-0.7-0.8-0.9-1.3c-0.2-0.4-0.2-0.7-0.3-1.1c0,0,0,0,0,0c0-0.1,0-0.1,0-0.2c-0.1-0.4-0.5-0.7-1-0.7c-0.5,0-0.9,0.3-1,0.7
			c0,0.1,0,0.3,0,0.4c0,0,0,0,0,0c0.1,0.7,0.3,1.4,0.6,2c0.4,0.7,0.9,1.4,1.5,1.8c0.6,0.5,1.3,0.8,1.9,1c0.7,0.2,1.3,0.3,1.9,0.3
			c0.8,0,1.7-0.2,2.7-0.6c0.9-0.4,1.7-1,2.3-1.9c0.6,0.8,1.3,1.4,2.2,1.9c0.9,0.4,1.8,0.6,2.7,0.6c0.8,0,1.6-0.2,2.3-0.5
			c0.7-0.3,1.3-0.7,1.9-1.3c0.5-0.5,0.9-1.2,1.2-1.9c0.3-0.7,0.5-1.5,0.5-2.3v-12.2C-382.2,275.6-382.2,275.4-382.4,275.3z"/>
		<path id="XMLID_169_" class="st0" d="M-402.2,275.3c-0.2-0.1-0.3-0.2-0.5-0.2h-0.4c-0.2,0-0.4,0.1-0.6,0.2
			c-0.1,0.1-0.2,0.3-0.2,0.5v8.7v0.1v0.1c0.1,0.4,0.5,0.8,1,0.8c0.5,0,0.8-0.3,0.9-0.7v-0.3v-0.1v-8.6
			C-401.9,275.6-402,275.4-402.2,275.3z"/>
	</g>
	<path id="XMLID_152_" class="st0" d="M-376.4,282.9c0,0.4,0.3,0.8,0.7,0.9c0.1,0,6.4,0,6.4,0c0.2,0,0.4-0.1,0.6-0.2
		s0.2-0.3,0.2-0.6v-1.7c0-1.1-0.2-2.1-0.5-2.9c-0.3-0.8-0.7-1.6-1.3-2.1c-0.5-0.6-1.2-1-1.9-1.3c-0.7-0.3-1.5-0.4-2.3-0.4
		c-0.8,0-1.6,0.2-2.3,0.5c-0.7,0.3-1.4,0.8-1.9,1.3c-0.5,0.6-1,1.3-1.3,2.2c-0.3,0.8-0.5,1.8-0.5,2.8v0.3v3.7v2.5
		c0,0.8,0.2,1.6,0.5,2.3c0.3,0.7,0.7,1.4,1.3,1.9c0.5,0.5,1.2,1,1.9,1.3c0.7,0.3,1.5,0.5,2.3,0.5c0.7,0,1.4-0.1,2.1-0.4
		c0.7-0.2,1.3-0.6,1.8-1c0.5-0.4,0.9-0.9,1.3-1.5c0.3-0.6,0.6-1.1,0.7-1.7c0-0.2-0.1-0.4-0.2-0.5c-0.1-0.1-0.3-0.2-0.5-0.2h-0.4
		c-0.3,0-0.5,0.1-0.6,0.2c-0.1,0.1-0.2,0.3-0.2,0.5c-0.1,0.3-0.2,0.7-0.4,1c-0.2,0.3-0.4,0.6-0.7,0.9c-0.3,0.3-0.7,0.5-1.1,0.6
		c-0.5,0.1-1,0.2-1.7,0.2c-0.6,0-1.1-0.1-1.6-0.3c-0.5-0.2-0.9-0.5-1.3-0.9c-0.4-0.4-0.6-0.8-0.8-1.2c-0.2-0.5-0.3-1-0.3-1.6v-2.5
		v-1.6c0-0.6,0-1.3,0-1.9c0-0.1,0-0.3,0-0.3c0-0.1,0-0.1,0-0.2c0,0,0-0.1,0-0.1c0,0,0,0,0,0c0-0.8,0.1-1.5,0.3-2.1
		c0.2-0.7,0.5-1.3,0.9-1.7c0.4-0.4,0.8-0.8,1.3-0.9c0.5-0.2,0.9-0.3,1.4-0.3c0.5,0,1.1,0.1,1.6,0.3c0.5,0.2,0.9,0.5,1.3,1
		c0.4,0.4,0.7,1,0.9,1.7c0.2,0.7,0.3,1.6,0.3,2.6h-5C-375.9,281.9-376.4,282.3-376.4,282.9z"/>
</g>
<g id="XMLID_135_">
	<g id="XMLID_137_">
		<path id="XMLID_146_" class="st0" d="M-286.2,275.3c-0.2-0.1-0.3-0.2-0.5-0.2h-0.4c-0.2,0-0.4,0.1-0.6,0.2
			c-0.1,0.1-0.2,0.3-0.2,0.5V288c0,0.5-0.1,1-0.3,1.5c-0.2,0.5-0.5,0.9-0.9,1.3c-0.4,0.4-0.8,0.7-1.3,0.9c-0.5,0.2-1,0.3-1.5,0.3
			c-0.5,0-1-0.1-1.5-0.3c-0.5-0.2-0.9-0.5-1.3-0.9c-0.4-0.4-0.7-0.8-0.9-1.3c-0.2-0.5-0.3-1-0.3-1.6v-12.2c0-0.2-0.1-0.4-0.2-0.5
			c-0.2-0.1-0.3-0.2-0.5-0.2h-0.4c-0.2,0-0.4,0.1-0.6,0.2c-0.1,0.1-0.2,0.3-0.2,0.5V288c0,0.6-0.1,1.1-0.3,1.6
			c-0.2,0.5-0.5,0.9-0.9,1.3s-0.8,0.7-1.3,0.9c-0.5,0.2-1,0.3-1.5,0.3c-0.6,0-1.1-0.1-1.6-0.3c-0.5-0.2-0.9-0.5-1.3-0.8
			c-0.4-0.4-0.7-0.8-0.9-1.3c-0.2-0.4-0.2-0.7-0.3-1.1c0,0,0,0,0,0c0-0.1,0-0.1,0-0.2c-0.1-0.4-0.5-0.7-1-0.7c-0.5,0-0.9,0.3-1,0.7
			c0,0.1,0,0.3,0,0.4c0,0,0,0,0,0c0.1,0.7,0.3,1.4,0.6,2c0.4,0.7,0.9,1.4,1.5,1.8c0.6,0.5,1.3,0.8,1.9,1c0.7,0.2,1.3,0.3,1.9,0.3
			c0.8,0,1.7-0.2,2.7-0.6c0.9-0.4,1.7-1,2.3-1.9c0.6,0.8,1.3,1.4,2.2,1.9c0.9,0.4,1.8,0.6,2.7,0.6c0.8,0,1.6-0.2,2.3-0.5
			c0.7-0.3,1.3-0.7,1.9-1.3c0.5-0.5,0.9-1.2,1.2-1.9c0.3-0.7,0.5-1.5,0.5-2.3v-12.2C-285.9,275.6-286,275.4-286.2,275.3z"/>
		<path id="XMLID_145_" class="st0" d="M-305.9,275.3c-0.2-0.1-0.3-0.2-0.5-0.2h-0.4c-0.2,0-0.4,0.1-0.6,0.2
			c-0.1,0.1-0.2,0.3-0.2,0.5v8.7v0.1v0.1c0.1,0.4,0.5,0.8,1,0.8c0.5,0,0.8-0.3,0.9-0.7v-0.3v-0.1v-8.6
			C-305.7,275.6-305.8,275.4-305.9,275.3z"/>
	</g>
	<path id="XMLID_136_" class="st0" d="M-280.2,282.9c0,0.4,0.3,0.8,0.7,0.9c0.1,0,6.4,0,6.4,0c0.2,0,0.4-0.1,0.6-0.2
		s0.2-0.3,0.2-0.6v-1.7c0-1.1-0.2-2.1-0.5-2.9c-0.3-0.8-0.7-1.6-1.3-2.1c-0.5-0.6-1.2-1-1.9-1.3c-0.7-0.3-1.5-0.4-2.3-0.4
		c-0.8,0-1.6,0.2-2.3,0.5c-0.7,0.3-1.4,0.8-1.9,1.3c-0.5,0.6-1,1.3-1.3,2.2c-0.3,0.8-0.5,1.8-0.5,2.8v0.3v3.7v2.5
		c0,0.8,0.2,1.6,0.5,2.3c0.3,0.7,0.7,1.4,1.3,1.9c0.5,0.5,1.2,1,1.9,1.3c0.7,0.3,1.5,0.5,2.3,0.5c0.7,0,1.4-0.1,2.1-0.4
		c0.7-0.2,1.3-0.6,1.8-1c0.5-0.4,0.9-0.9,1.3-1.5c0.3-0.6,0.6-1.1,0.7-1.7c0-0.2-0.1-0.4-0.2-0.5c-0.1-0.1-0.3-0.2-0.5-0.2h-0.4
		c-0.3,0-0.5,0.1-0.6,0.2c-0.1,0.1-0.2,0.3-0.2,0.5c-0.1,0.3-0.2,0.7-0.4,1c-0.2,0.3-0.4,0.6-0.7,0.9c-0.3,0.3-0.7,0.5-1.1,0.6
		c-0.5,0.1-1,0.2-1.7,0.2c-0.6,0-1.1-0.1-1.6-0.3c-0.5-0.2-0.9-0.5-1.3-0.9c-0.4-0.4-0.6-0.8-0.8-1.2c-0.2-0.5-0.3-1-0.3-1.6v-2.5
		v-1.6c0-0.6,0-1.3,0-1.9c0-0.1,0-0.3,0-0.3c0-0.1,0-0.1,0-0.2c0,0,0-0.1,0-0.1c0,0,0,0,0,0c0-0.8,0.1-1.5,0.3-2.1
		c0.2-0.7,0.5-1.3,0.9-1.7c0.4-0.4,0.8-0.8,1.3-0.9c0.5-0.2,0.9-0.3,1.4-0.3c0.5,0,1.1,0.1,1.6,0.3c0.5,0.2,0.9,0.5,1.3,1
		c0.4,0.4,0.7,1,0.9,1.7c0.2,0.7,0.3,1.6,0.3,2.6h-5C-279.7,281.9-280.2,282.3-280.2,282.9z"/>
</g>
<path id="XMLID_118_" class="st0" d="M-270,268.8c0.1-0.1,0.3-0.2,0.6-0.2h0C-269.7,268.6-269.9,268.6-270,268.8
	c-0.2,0.1-0.2,0.3-0.2,0.5V288c0,0,0,0,0,0v-18.7C-270.3,269.1-270.2,268.9-270,268.8z"/>
<path id="XMLID_115_" class="st0" d="M-259,278.2c-0.3-0.7-0.7-1.4-1.3-1.9c-0.5-0.5-1.2-1-1.9-1.3c-0.3-0.1-0.5-0.2-0.8-0.3
	c-0.5-0.1-1-0.2-1.5-0.2c-0.1,0-0.3,0-0.5,0c-0.1,0-0.1,0-0.2,0c-0.2,0-0.4,0.1-0.6,0.1c-0.1,0-0.1,0.1-0.2,0.1
	c-0.2,0.2-0.4,0.4-0.4,0.8c0,0.4,0.3,0.7,0.6,0.9c0.1,0,0.2,0.1,0.3,0.1c0.1,0,0.2,0,0.3,0c0.2,0,0.4,0,0.6-0.1c0,0,0.1,0,0.1,0
	c0.6,0,1.1,0.1,1.6,0.3c0.5,0.2,0.9,0.5,1.3,0.9c0.4,0.4,0.6,0.8,0.8,1.3c0.2,0.5,0.3,1,0.3,1.5v7.4c0,0.6-0.1,1.1-0.3,1.6
	c-0.2,0.5-0.5,0.9-0.8,1.2c-0.4,0.4-0.8,0.6-1.3,0.8c-0.5,0.2-1,0.3-1.6,0.3c-0.5,0-1.1-0.1-1.5-0.3c-0.5-0.2-0.9-0.5-1.3-0.8
	c-0.4-0.4-0.7-0.8-0.9-1.2c-0.2-0.5-0.3-1-0.3-1.6v-18.6c0-0.2-0.1-0.4-0.2-0.5c-0.1-0.1-0.3-0.2-0.6-0.2h-0.4
	c-0.2,0-0.4,0.1-0.6,0.2c-0.1,0.1-0.2,0.3-0.2,0.5V288v4.6c0,0.2,0.1,0.4,0.2,0.5c0.1,0.1,0.3,0.2,0.6,0.2h0.4
	c0.2,0,0.4-0.1,0.5-0.2c0.2-0.1,0.2-0.3,0.2-0.5v-0.3c0.4,0.4,1,0.7,1.6,1c0.6,0.3,1.3,0.4,2,0.5c0.1,0,0.2,0,0.3,0c0,0,0,0,0,0
	c0.4,0,0.8,0,1.2-0.1c0.4-0.1,0.8-0.2,1.1-0.3c0.7-0.3,1.3-0.7,1.9-1.2c0.5-0.5,1-1.2,1.3-1.9c0.3-0.7,0.5-1.5,0.5-2.3v-7.4
	C-258.5,279.7-258.7,278.9-259,278.2z"/>
<path id="XMLID_221_" class="st0" d="M-341.5,294.1c0.3-0.1,0.6-0.1,0.9-0.2c0.3-0.1,0.5-0.1,0.8-0.2c0.1,0.1,0.2,0.3,0.4,0.4
	c-0.1-0.1-0.2-0.3-0.4-0.4c-0.3,0.1-0.5,0.1-0.8,0.2C-340.9,294-341.2,294.1-341.5,294.1z"/>
<path id="XMLID_219_" class="st0" d="M-352,295.2c0,0.1,0,0.2,0.1,0.2C-351.9,295.4-352,295.3-352,295.2z"/>
<path id="XMLID_218_" class="st0" d="M-345,296.7c-1.2,0.2-2.2,0.2-3,0.2c-1.7,0-2.8-0.3-3.4-1c0.6,0.6,1.7,1,3.4,1
	C-347.2,297-346.2,296.9-345,296.7z"/>
<path id="XMLID_217_" class="st0" d="M-352,295.1C-352,295.1-352,295.1-352,295.1c-0.8,1.2-1.1,2.1-0.9,2.6c0,0,0,0.1,0.1,0.1
	c0,0-0.1-0.1-0.1-0.1C-353.1,297.2-352.8,296.3-352,295.1z"/>
<path id="XMLID_216_" class="st0" d="M-340.9,296c0.2,0,0.3-0.1,0.5-0.1c-0.5-0.5-1-1.1-1.4-1.7l0,0c0.4,0.6,0.9,1.1,1.4,1.7
	C-340.6,295.9-340.7,295.9-340.9,296z"/>
<path id="XMLID_214_" class="st0" d="M-330.8,297c-0.9,0.4-1.9,0.7-3,1c0.2,0.1,0.3,0.1,0.5,0.2c-0.2-0.1-0.3-0.1-0.5-0.2
	C-332.7,297.7-331.8,297.4-330.8,297z"/>
<path id="XMLID_207_" class="st0" d="M-326,265c1.1,1.1,2.9,1.1,4,0c0,0,0,0,0,0c1.1-1.1,1.1-3,0-4.1c0,0,0,0,0,0
	c-1.1-1.1-3-1.1-4.1,0c0,0,0,0,0,0C-327.1,262-327.1,263.8-326,265L-326,265z M-325,261.8c0.6-0.6,1.5-0.6,2,0
	c0.3,0.3,0.4,0.6,0.4,1c0,0.8-0.6,1.4-1.4,1.4c-0.4,0-0.7-0.1-1-0.4l0,0C-325.5,263.3-325.5,262.4-325,261.8z"/>
<path id="XMLID_204_" class="st0" d="M-343.1,282.4c-0.8,1.2-0.5,2.8,0.6,3.6s2.8,0.5,3.6-0.6l0,0c0.8-1.2,0.5-2.8-0.6-3.6
	S-342.3,281.2-343.1,282.4z M-340,284.5c-0.2,0.3-0.5,0.4-0.8,0.5l0,0c-0.3,0.1-0.6,0-0.9-0.2c-0.5-0.4-0.7-1.1-0.3-1.6
	c0.4-0.5,1.1-0.7,1.7-0.3C-339.8,283.3-339.7,284-340,284.5z"/>
<g id="XMLID_193_">
	<path id="XMLID_203_" class="st0" d="M-331.8,274.7c3.5-0.1,5.9,1.6,6.8,2.4c0.2,0.2,0.5,0.2,0.7,0.2c0.2,0,0.4-0.1,0.5-0.3
		c0.3-0.3,0.3-0.9-0.1-1.2c-1-0.9-3.9-2.9-8-2.8c-4.5,0.2-7.3,2.9-8.1,3.8c-0.3,0.3-0.3,0.9,0.1,1.2c0.3,0.3,0.9,0.3,1.2-0.1
		C-338.1,277.2-335.7,274.8-331.8,274.7z"/>
	<path id="XMLID_194_" class="st0" d="M-310.2,267.4c-1.1-1.2-3.3-1.1-7.1,0.3c-1.9,0.7-4.2,1.8-6.8,3.2c0,0-0.1,0-0.1,0.1
		c0,0,0.1,0,0.1-0.1c-1.3-0.8-2.8-1.4-4.4-1.7c-0.1,0-0.2,0-0.4-0.1c-0.1-0.1-0.3-0.1-0.4-0.1c0,0-0.1,0-0.1,0
		c-0.5,0.1-0.8,0.5-0.7,1c0.1,0.3,0.3,0.6,0.6,0.7c0,0,0.1,0,0.1,0c0.2,0,0.3,0.1,0.5,0.1c4,0.9,7.3,3.5,9.1,7
		c-2.7,3.4-5.8,6.5-9.6,9.5c-2.7,2.2-6,4.9-11,7c-2.4-2-4.1-4.8-4.7-8.1c-0.3-1.5-0.3-3-0.1-4.4c0-0.2,0.1-0.4,0.1-0.6
		c0.1-0.5,0.3-1.1,0.4-1.6c0.1-0.2,0.1-0.4,0.2-0.6c0.1-0.3,0.2-0.6,0.4-0.9c0.1-0.2,0.2-0.4,0.3-0.6c0-0.1,0.1-0.2,0.2-0.3
		c0,0,0,0,0,0c0.1-0.2,0.2-0.3,0.3-0.5c0.1-0.2,0.3-0.4,0.4-0.6c0.1-0.2,0.3-0.3,0.4-0.5c0.1-0.2,0.3-0.3,0.4-0.5
		c0.1-0.2,0.3-0.3,0.4-0.5c0.1-0.2,0.3-0.3,0.5-0.5c0.1-0.1,0.2-0.1,0.2-0.2c0.7-0.7,1.5-1.2,2.4-1.7c0.2-0.1,0.3-0.2,0.5-0.3
		c0.1-0.1,0.3-0.1,0.4-0.2c0.1,0,0.2-0.1,0.2-0.1c0.3-0.1,0.6-0.3,1-0.4c0.1,0,0.2-0.1,0.3-0.1c0.1,0,0.2-0.1,0.3-0.1
		c0.1,0,0.1,0,0.2-0.1c0.2-0.1,0.3-0.1,0.5-0.1c0.1,0,0.2,0,0.3-0.1c0.2-0.1,0.4-0.1,0.7-0.1c0,0,0,0,0,0c0.1,0,0.1,0,0.2,0
		c0,0,0.1,0,0.1,0c0.4-0.1,0.6-0.5,0.6-0.9c-0.1-0.4-0.5-0.7-0.9-0.7c0,0,0,0,0,0c0,0,0,0,0,0c0,0,0,0,0,0c0,0-0.1,0-0.1,0
		c-8.2,1.5-13.7,9.3-12.3,17.5c0.1,0.7,0.3,1.3,0.5,2c-0.6,0.6-1.2,1.4-1.9,2.2c-0.8,1-1.6,2-2.3,3c-0.7,1-1.2,1.9-1.6,2.7
		c-0.9,1.8-0.9,3.2-0.3,4.1c0.8,1.1,2.5,1.5,5.2,1c1-0.2,2.1-0.4,3.4-0.8c3.1-1,6.1-2.2,6.7-2.5c2.4,0.9,5,1.1,7.7,0.7
		c8-1.4,13.4-8.9,12.4-16.8c1.7-2.2,3.3-4.4,4.4-6.4C-309.6,271.4-309,268.7-310.2,267.4z M-323.3,272.4
		C-323.3,272.4-323.3,272.4-323.3,272.4l0.3,0.6L-323.3,272.4z M-323.3,271.3c-0.1,0-0.1-0.1-0.2-0.1
		C-323.5,271.2-323.4,271.3-323.3,271.3c0,0,0.1,0,0.1,0.1C-323.2,271.3-323.3,271.3-323.3,271.3z M-321.8,272.5
		C-321.8,272.4-321.8,272.4-321.8,272.5C-321.8,272.4-321.8,272.4-321.8,272.5c5.6-3,6.9-2.6,7.1-2.5c0,0.1,0,0.2-0.1,0.5
		c-0.1,0.4-0.4,1.2-1.3,2.4c-0.2,0.2-0.3,0.5-0.5,0.7c-0.6,0.9-1.3,1.9-2,2.7C-319.4,274.9-320.5,273.6-321.8,272.5z M-340.9,294.6
		c0.1,0,0.2-0.1,0.3-0.1C-340.6,294.5-340.7,294.6-340.9,294.6c-0.1,0-0.1,0.1-0.2,0.1C-341,294.7-340.9,294.7-340.9,294.6z
		 M-348.4,295.4c0.2-0.4,0.6-1,1-1.6c0.6-0.8,1.3-1.7,2.3-2.8c0.8,1.5,1.9,2.9,3.1,4.1c-6.1,2.4-6.9,1.7-6.9,1.6
		C-348.9,296.6-348.8,296.2-348.4,295.4z M-318.5,286.9c-1.2,5.1-5.3,9.3-10.8,10.3c-1.6,0.3-3.2,0.3-4.8,0c-0.1,0-0.3-0.1-0.4-0.1
		c0.8-0.4,1.6-0.9,2.4-1.3c2.9-1.8,5.1-3.5,6.6-4.8c2.2-1.8,4-3.5,5.5-5c0.6-0.7,1.2-1.3,1.7-1.9c0.1-0.1,0.1-0.1,0.2-0.2
		C-318.2,284.9-318.3,285.9-318.5,286.9z M-312.7,273.1c-0.3,0.5-0.6,1.1-1,1.7c-0.9,1.5-2.1,3.3-3.4,5.1c0,0,0,0,0,0
		c-0.3,0.4-0.6,0.8-0.9,1.2c-0.1,0.1-0.2,0.3-0.4,0.5c-0.1,0.1-0.1,0.1-0.2,0.2c-1,1.2-2.6,3.1-4.9,5.2c-0.9,0.9-2,1.8-3.1,2.7
		c-2,1.7-5.4,4.4-10.2,6.6c-0.2,0.1-0.4,0.2-0.5,0.3c-0.1,0-0.6,0.3-1.5,0.6c-0.9,0.4-2.1,0.8-3.4,1.3c-0.6,0.2-1.1,0.4-1.7,0.6
		c-4.1,1.2-6.1,1.1-6.6,0.6c0,0-0.1-0.1-0.1-0.1c-0.3-0.4-0.2-1.1,0.3-2.3c0,0,0,0.1,0,0.1c0,0.1,0.1,0.1,0.1,0.2c0,0,0,0,0,0
		c0.1,0.2,0.2,0.3,0.4,0.4c0.6,0.5,1.6,0.6,3.1,0.3c0.7-0.1,1.6-0.3,2.5-0.7c1-0.3,2.1-0.7,3.4-1.3c0.1-0.1,0.3-0.1,0.4-0.2
		c0.1,0,0.1-0.1,0.2-0.1c0.6-0.2,1.1-0.5,1.6-0.7c0,0,0,0,0,0l0,0c1.2-0.5,2.2-1.1,3.2-1.7c3-1.7,5.3-3.6,7.2-5.2c1-0.8,2-1.7,3-2.5
		c1.1-1,2.2-2.1,3.3-3.1c1.1-1.1,2.1-2.2,3-3.4c0.3-0.3,0.5-0.7,0.8-1c0.1-0.2,0.3-0.3,0.4-0.5c3.3-4.2,5.6-7.5,4.3-9.1
		c-0.1-0.1-0.2-0.2-0.3-0.3c-0.1-0.1-0.3-0.2-0.4-0.2c0,0,0,0,0,0c1.6-0.4,2.4-0.2,2.6,0.1C-311.3,268.6-310.8,269.5-312.7,273.1z"
		/>
</g>
<path id="XMLID_182_" class="st0" d="M-345,296.7c1.2-0.2,2.6-0.4,4.2-0.8C-342.4,296.3-343.8,296.6-345,296.7z"/>
<path id="XMLID_181_" class="st0" d="M-352,295.1C-352,295.1-352,295.1-352,295.1c0,0,0,0.1,0,0.1C-352,295.2-352,295.1-352,295.1z"
	/>
<path id="XMLID_180_" class="st0" d="M-351.5,296c-0.2-0.2-0.3-0.3-0.4-0.5c0,0,0,0,0,0c0,0,0,0,0,0
	C-351.8,295.7-351.7,295.8-351.5,296z"/>
<path id="XMLID_105_" class="st0" d="M-359.3,278.2c0.3-0.7,0.7-1.4,1.3-1.9c0.5-0.5,1.2-1,1.9-1.3c0.3-0.1,0.5-0.2,0.8-0.3
	c0.5-0.1,1-0.2,1.5-0.2c0.1,0,0.3,0,0.5,0c0.1,0,0.1,0,0.2,0c0.2,0,0.4,0.1,0.6,0.1c0.1,0,0.1,0.1,0.2,0.1c0.2,0.2,0.4,0.4,0.4,0.8
	c0,0.4-0.3,0.7-0.6,0.9c-0.1,0-0.2,0.1-0.3,0.1c-0.1,0-0.2,0-0.3,0c-0.2,0-0.4,0-0.6-0.1c0,0-0.1,0-0.1,0c-0.6,0-1.1,0.1-1.6,0.3
	c-0.5,0.2-0.9,0.5-1.3,0.9s-0.6,0.8-0.8,1.3c-0.2,0.5-0.3,1-0.3,1.5v7.4c0,0.6,0.1,1.1,0.3,1.6c0.2,0.5,0.5,0.9,0.8,1.2
	s0.8,0.6,1.3,0.8c0.5,0.2,1,0.3,1.6,0.3c0.5,0,1.1-0.1,1.5-0.3c0.5-0.2,0.9-0.5,1.3-0.8s0.7-0.8,0.9-1.2c0.2-0.5,0.3-1,0.3-1.6
	v-18.6c0-0.2,0.1-0.4,0.2-0.5c0.1-0.1,0.3-0.2,0.6-0.2h0.4c0.2,0,0.4,0.1,0.6,0.2c0.1,0.1,0.2,0.3,0.2,0.5V288v4.6
	c0,0.2-0.1,0.4-0.2,0.5c-0.1,0.1-0.3,0.2-0.6,0.2h-0.4c-0.2,0-0.4-0.1-0.5-0.2c-0.2-0.1-0.2-0.3-0.2-0.5v-0.3c-0.4,0.4-1,0.7-1.6,1
	c-0.6,0.3-1.3,0.4-2,0.5c-0.1,0-0.2,0-0.3,0c0,0,0,0,0,0c-0.4,0-0.8,0-1.2-0.1c-0.4-0.1-0.8-0.2-1.1-0.3c-0.7-0.3-1.3-0.7-1.9-1.2
	c-0.5-0.5-1-1.2-1.3-1.9c-0.3-0.7-0.5-1.5-0.5-2.3v-7.4C-359.7,279.7-359.6,278.9-359.3,278.2z"/>
<path id="XMLID_104_" class="st0" d="M-353.9,275.6c0,0.4,0.3,0.8,0.7,0.9c0.1,0,0.6,0,0.7,0c-0.1,0-0.2,0.1-0.3,0.1
	C-353.4,276.5-353.8,276.1-353.9,275.6c0.1-0.4,0.3-0.7,0.6-0.9C-353.7,274.8-353.9,275.2-353.9,275.6z"/>
<path id="XMLID_55_" class="st0" d="M-325.4,300.5c-0.8,0.8-0.8,2.1,0,2.9c0.8,0.8,2.1,0.8,2.9,0v0c0.8-0.8,0.8-2.1,0-2.9
	C-323.3,299.7-324.6,299.7-325.4,300.5z M-323.3,302.6c-0.2,0.2-0.4,0.3-0.7,0.3l0,0c-0.2,0-0.5-0.1-0.7-0.3c-0.4-0.4-0.4-1,0-1.3
	c0.4-0.4,1-0.4,1.3,0C-323,301.7-323,302.3-323.3,302.6z"/>
</svg>
